<?xml version="1.0" encoding="utf-8"?>
<!-- Svg Vector Icons : http://www.onlinewebfonts.com/icon -->
<!DOCTYPE svg PUBLIC "-//W3C//DTD SVG 1.1//EN" "http://www.w3.org/Graphics/SVG/1.1/DTD/svg11.dtd">
<svg version="1.1" xmlns="http://www.w3.org/2000/svg" xmlns:xlink="http://www.w3.org/1999/xlink" x="0px" y="0px" viewBox="0 0 256 256" enable-background="new 0 0 256 256" xml:space="preserve">
<metadata> Svg Vector Icons : http://www.onlinewebfonts.com/icon </metadata>
<g><g><path fill="#000000" d="M128,246c-65.2,0-118-52.9-118-118C10,62.8,62.8,10,128,10c65.2,0,118,52.8,118,118C246,193.1,193.1,246,128,246z M128,32.1C75,32.1,32.1,75,32.1,128c0,53,42.9,95.9,95.9,95.9c53,0,95.9-42.9,95.9-95.9C223.9,75,181,32.1,128,32.1z M175.9,139.1h-67.1l15.5,13.9l0,0c2.3,2,3.7,4.9,3.7,8.2c0,6.1-4.9,11.1-11.1,11.1c-2.8,0-5.4-1.1-7.4-2.9v0l-36.9-33.2l0,0c-2.3-2-3.7-4.9-3.7-8.2c0-3.3,1.4-6.1,3.7-8.2l0,0l36.9-33.2l0,0c2-1.8,4.6-2.9,7.4-2.9c6.1,0,11.1,5,11.1,11.1c0,3.3-1.4,6.2-3.7,8.2l0,0l-15.5,13.9h67.1c6.1,0,11.1,5,11.1,11.1C187,134.1,182.1,139.1,175.9,139.1z"/></g></g>
</svg>